<svg width="16" height="11" viewBox="0 0 16 11" fill="none" xmlns="http://www.w3.org/2000/svg">
<g clip-path="url(#clip0_34_1858)">
<g clip-path="url(#clip1_34_1858)">
<path d="M13.5748 1.6893C13.787 1.47923 14.0735 1.36139 14.3721 1.36139C14.6706 1.36139 14.9571 1.47923 15.1693 1.6893C15.274 1.79245 15.3572 1.91541 15.414 2.05102C15.4708 2.18662 15.5 2.33217 15.5 2.47918C15.5 2.62619 15.4708 2.77174 15.414 2.90734C15.3572 3.04295 15.274 3.16591 15.1693 3.26906L8.79803 9.51313C8.58539 9.72291 8.2987 9.84053 8 9.84053C7.7013 9.84053 7.41461 9.72291 7.20197 9.51313L0.830728 3.26906C0.725982 3.16591 0.642798 3.04295 0.586019 2.90734C0.52924 2.77174 0.5 2.62619 0.5 2.47918C0.5 2.33217 0.52924 2.18662 0.586019 2.05102C0.642798 1.91541 0.725982 1.79245 0.830728 1.6893C1.04289 1.47923 1.32939 1.36139 1.62795 1.36139C1.92651 1.36139 2.21301 1.47923 2.42517 1.6893L8.00245 6.81009L13.5748 1.6893Z" fill="#848F9F"/>
</g>
</g>
<defs>
<clipPath id="clip0_34_1858">
<rect width="16" height="10" fill="white" transform="translate(0 0.419983)"/>
</clipPath>
<clipPath id="clip1_34_1858">
<rect width="16" height="10" fill="white" transform="translate(0 0.419983)"/>
</clipPath>
</defs>
</svg>
