<svg width="17" height="16" viewBox="0 0 17 16" fill="none" xmlns="http://www.w3.org/2000/svg">
<path d="M11.12 7.63798L5.54705 2.32798C5.45406 2.23933 5.33052 2.18988 5.20205 2.18988C5.07358 2.18988 4.95003 2.23933 4.85705 2.32798L4.85105 2.33398C4.80581 2.37695 4.76979 2.42868 4.74518 2.48601C4.72056 2.54334 4.70787 2.60508 4.70787 2.66748C4.70787 2.72987 4.72056 2.79161 4.74518 2.84894C4.76979 2.90628 4.80581 2.958 4.85105 3.00098L10.099 8.00098L4.85105 12.999C4.80581 13.0419 4.76979 13.0937 4.74518 13.151C4.72056 13.2083 4.70787 13.2701 4.70787 13.3325C4.70787 13.3949 4.72056 13.4566 4.74518 13.5139C4.76979 13.5713 4.80581 13.623 4.85105 13.666L4.85705 13.672C4.95003 13.7606 5.07358 13.8101 5.20205 13.8101C5.33052 13.8101 5.45406 13.7606 5.54705 13.672L11.12 8.36198C11.1691 8.31528 11.2081 8.25911 11.2347 8.19689C11.2614 8.13466 11.2751 8.06767 11.2751 7.99998C11.2751 7.93228 11.2614 7.86529 11.2347 7.80306C11.2081 7.74084 11.1691 7.68467 11.12 7.63798Z" fill="black"/>
</svg>
