<svg width="16" height="16" viewBox="0 0 16 16" fill="none" xmlns="http://www.w3.org/2000/svg">
<g clip-path="url(#clip0_34_1841)">
<path d="M14.0801 8.09H3.45508V4.59625C3.45288 4.37116 3.51228 4.14974 3.62685 3.95597C3.74141 3.7622 3.90679 3.60344 4.10508 3.49688C4.32448 3.37828 4.57442 3.32821 4.82258 3.35313C4.69625 3.73558 4.67827 4.14555 4.7706 4.5376C4.86293 4.92965 5.06198 5.28849 5.3457 5.57438L6.0082 6.23688C6.06625 6.29499 6.13518 6.34109 6.21105 6.37254C6.28693 6.404 6.36825 6.42018 6.45039 6.42018C6.53252 6.42018 6.61383 6.404 6.6897 6.37254C6.76558 6.34109 6.83452 6.29499 6.89258 6.23688L9.10195 4.0275C9.21914 3.9103 9.28495 3.75136 9.28495 3.58563C9.28495 3.4199 9.21914 3.26096 9.10195 3.14375L8.43945 2.48125C8.07058 2.1139 7.58258 1.89042 7.06345 1.85112C6.5443 1.81181 6.02821 1.95926 5.6082 2.26688C5.22957 2.11892 4.82052 2.06571 4.41663 2.11189C4.01275 2.15807 3.62627 2.30224 3.2908 2.53186C2.95535 2.76147 2.68107 3.06958 2.49185 3.42937C2.30262 3.78916 2.20418 4.18974 2.20508 4.59625V8.09H1.58008C1.41432 8.09 1.25535 8.15587 1.13813 8.27306C1.02093 8.39025 0.955078 8.54925 0.955078 8.715C0.955078 8.88075 1.02093 9.03975 1.13813 9.15693C1.25535 9.27418 1.41432 9.34 1.58008 9.34H2.20508V11.215C2.20623 11.6015 2.327 11.9782 2.55082 12.2934C2.77463 12.6085 3.09051 12.8466 3.45508 12.975V13.715C3.45508 13.8807 3.52093 14.0397 3.63813 14.1569C3.75535 14.2742 3.91432 14.34 4.08008 14.34C4.24584 14.34 4.40481 14.2742 4.52202 14.1569C4.63923 14.0397 4.70508 13.8807 4.70508 13.715V13.09H10.9551V13.715C10.9551 13.8807 11.021 14.0397 11.1381 14.1569C11.2553 14.2742 11.4143 14.34 11.5801 14.34C11.7458 14.34 11.9048 14.2742 12.022 14.1569C12.1392 14.0397 12.2051 13.8807 12.2051 13.715V12.975C12.5696 12.8466 12.8855 12.6085 13.1093 12.2934C13.3331 11.9782 13.454 11.6015 13.4551 11.215V9.34H14.0801C14.2458 9.34 14.4048 9.27418 14.522 9.15693C14.6392 9.03975 14.7051 8.88075 14.7051 8.715C14.7051 8.54925 14.6392 8.39025 14.522 8.27306C14.4048 8.15587 14.2458 8.09 14.0801 8.09ZM6.23008 3.365C6.40602 3.18975 6.64427 3.09135 6.89258 3.09135C7.14089 3.09135 7.37914 3.18975 7.55508 3.365L7.77633 3.58563L6.4507 4.91125L6.22945 4.69063C6.05366 4.51471 5.95491 4.2762 5.95491 4.0275C5.95491 3.77881 6.05366 3.5403 6.22945 3.36438L6.23008 3.365ZM12.2051 11.215C12.2051 11.3807 12.1392 11.5397 12.022 11.6569C11.9048 11.7742 11.7458 11.84 11.5801 11.84H4.08008C3.91432 11.84 3.75535 11.7742 3.63813 11.6569C3.52093 11.5397 3.45508 11.3807 3.45508 11.215V9.34H12.2051V11.215Z" fill="#5F738C"/>
</g>
<defs>
<clipPath id="clip0_34_1841">
<rect width="15" height="15" fill="white" transform="translate(0.330078 0.589996)"/>
</clipPath>
</defs>
</svg>
