<svg width="15" height="16" viewBox="0 0 15 16" fill="none" xmlns="http://www.w3.org/2000/svg">
<path d="M11.25 7.62125H2.8125V4.57437C2.81342 4.26386 2.93719 3.96632 3.15676 3.74675C3.37632 3.52718 3.67386 3.40342 3.98438 3.4025H11.0156C11.3261 3.40342 11.6237 3.52718 11.8432 3.74675C12.0628 3.96632 12.1866 4.26386 12.1875 4.57437V7.62125H11.25Z" stroke="#5F738C" stroke-width="0.9375" stroke-linecap="round" stroke-linejoin="round"/>
<path d="M1.40625 12.7775V9.49625C1.40772 8.99943 1.60573 8.52337 1.95705 8.17206C2.30836 7.82075 2.78442 7.62268 3.28125 7.62125H11.7188C12.2156 7.62268 12.6916 7.82075 13.0429 8.17206C13.3943 8.52337 13.5923 8.99943 13.5938 9.49625V12.7775" stroke="#5F738C" stroke-width="0.9375" stroke-linecap="round" stroke-linejoin="round"/>
<path d="M1.40625 12.7775V12.5431C1.40679 12.3568 1.48104 12.1783 1.61279 12.0466C1.74453 11.9148 1.92306 11.8406 2.10938 11.84H12.8906C13.0769 11.8406 13.2554 11.9148 13.3872 12.0466C13.5189 12.1783 13.5932 12.3568 13.5938 12.5431V12.7775" stroke="#5F738C" stroke-width="0.9375" stroke-linecap="round" stroke-linejoin="round"/>
<path d="M3.28125 7.62125V7.1525C3.28194 6.90406 3.38094 6.66602 3.55661 6.49035C3.73227 6.31469 3.97032 6.21569 4.21875 6.215H6.5625C6.81094 6.21569 7.049 6.31469 7.22462 6.49035C7.40031 6.66602 7.49931 6.90406 7.5 7.1525V7.62125" stroke="#5F738C" stroke-width="0.9375" stroke-linecap="round" stroke-linejoin="round"/>
<path d="M7.5 7.62125V7.1525C7.50069 6.90406 7.59969 6.66602 7.77538 6.49035C7.951 6.31469 8.18906 6.21569 8.4375 6.215H10.7812C11.0297 6.21569 11.2678 6.31469 11.4434 6.49035C11.6191 6.66602 11.7181 6.90406 11.7188 7.1525V7.62125" stroke="#5F738C" stroke-width="0.9375" stroke-linecap="round" stroke-linejoin="round"/>
</svg>
