<svg width="27" height="27" viewBox="0 0 27 27" fill="none" xmlns="http://www.w3.org/2000/svg">
<g clip-path="url(#clip0_15_629)">
<g clip-path="url(#clip1_15_629)">
<g clip-path="url(#clip2_15_629)">
<path d="M23.3738 0.0998535H3.15162C2.42026 0.0998535 1.71886 0.390383 1.20172 0.907529C0.684572 1.42468 0.394043 2.12608 0.394043 2.85743V23.0797C0.394043 23.811 0.684572 24.5124 1.20172 25.0296C1.71886 25.5467 2.42026 25.8372 3.15162 25.8372H11.0366V17.0871H7.41725V12.9686H11.0366V9.82951C11.0366 6.25902 13.1622 4.28678 16.4179 4.28678C17.977 4.28678 19.6075 4.56483 19.6075 4.56483V8.06925H17.811C16.041 8.06925 15.4889 9.16769 15.4889 10.2943V12.9686H19.4403L18.8083 17.0871H15.4889V25.8372H23.3738C24.1052 25.8372 24.8066 25.5467 25.3237 25.0296C25.8409 24.5124 26.1314 23.811 26.1314 23.0797V2.85743C26.1314 2.12608 25.8409 1.42468 25.3237 0.907529C24.8066 0.390383 24.1052 0.0998535 23.3738 0.0998535Z" fill="#18425D"/>
</g>
</g>
</g>
<defs>
<clipPath id="clip0_15_629">
<rect width="27" height="26" fill="white" transform="translate(0 0.0900879)"/>
</clipPath>
<clipPath id="clip1_15_629">
<rect width="27" height="26" fill="white" transform="translate(0 0.0900879)"/>
</clipPath>
<clipPath id="clip2_15_629">
<rect width="27" height="26" fill="white" transform="translate(0 0.0900879)"/>
</clipPath>
</defs>
</svg>
