<svg width="51" height="48" viewBox="0 0 51 48" fill="none" xmlns="http://www.w3.org/2000/svg">
<g clip-path="url(#clip0_15_520)">
<g clip-path="url(#clip1_15_520)">
<g clip-path="url(#clip2_15_520)">
<path d="M50.3705 24.0469L26.7532 0.46875C26.6223 0.3125 26.4586 0.195312 26.2622 0.117187C26.0658 0.0390625 25.8531 0 25.6239 0C25.1984 0 24.8219 0.15625 24.4946 0.46875L0.77913 24.0469C0.58273 24.2656 0.451794 24.5 0.386327 24.75C0.320859 25 0.329043 25.2578 0.410877 25.5235C0.492711 25.7891 0.63183 26.0156 0.82823 26.2031C0.9919 26.3281 1.17193 26.4297 1.36833 26.5078C1.56474 26.586 1.76114 26.6172 1.95754 26.6016C2.15394 26.586 2.35034 26.5391 2.54674 26.461C2.74314 26.3828 2.90681 26.2813 3.03775 26.1563L5.19816 24.0469V46.5C5.19816 46.9063 5.34546 47.2578 5.64007 47.5547C5.93467 47.8516 6.31111 48 6.76938 48H17.7188C17.8497 48 17.9724 47.9844 18.087 47.9531C18.2016 47.9219 18.308 47.8828 18.4062 47.836C18.5044 47.7891 18.6026 47.7266 18.7008 47.6485C18.799 47.5703 18.8808 47.4922 18.9463 47.4141C19.0117 47.336 19.069 47.25 19.1181 47.1563C19.1672 47.0625 19.2081 46.9531 19.2409 46.8281C19.2736 46.7031 19.29 46.5938 19.29 46.5L19.3391 31.5H31.8597V46.5C31.8597 46.9063 32.0152 47.2578 32.3261 47.5547C32.6371 47.8516 33.0053 48 33.4309 48H44.4294C44.8549 48 45.2232 47.8516 45.5341 47.5547C45.8451 47.2578 46.0006 46.9063 46.0006 46.5V24.0469L48.1119 26.1563C48.4065 26.4688 48.7829 26.625 49.2412 26.625C49.6667 26.625 50.0268 26.4844 50.3214 26.2031C50.616 25.8906 50.7715 25.5313 50.7879 25.125C50.8042 24.7188 50.6651 24.3594 50.3705 24.0469ZM42.8582 21.3281V45H35.0021V30C35.0021 29.5938 34.8466 29.2422 34.5356 28.9453C34.2247 28.6485 33.8564 28.5 33.4309 28.5H17.7679C17.3423 28.5 16.9741 28.6485 16.6631 28.9453C16.3521 29.2422 16.1966 29.5938 16.1966 30L16.1475 45H8.34059V21.3281C8.34059 21.2031 8.32422 21.0781 8.29149 20.9531L25.6239 3.70313L42.9073 20.9531C42.8745 21.0781 42.8582 21.2031 42.8582 21.3281Z" fill="#00B8DE"/>
</g>
</g>
</g>
<defs>
<clipPath id="clip0_15_520">
<rect width="50" height="48" fill="white" transform="translate(0.5)"/>
</clipPath>
<clipPath id="clip1_15_520">
<rect width="50" height="48" fill="white" transform="translate(0.5)"/>
</clipPath>
<clipPath id="clip2_15_520">
<rect width="52" height="48" fill="white" transform="translate(-0.5)"/>
</clipPath>
</defs>
</svg>
