<svg width="26" height="28" viewBox="0 0 26 28" fill="none" xmlns="http://www.w3.org/2000/svg">
<g clip-path="url(#clip0_15_633)">
<g clip-path="url(#clip1_15_633)">
<g clip-path="url(#clip2_15_633)">
<path d="M13.1268 7.36214C9.473 7.36214 6.52584 10.3093 6.52584 13.9631C6.52584 17.6169 9.473 20.564 13.1268 20.564C16.7806 20.564 19.7277 17.6169 19.7277 13.9631C19.7277 10.3093 16.7806 7.36214 13.1268 7.36214ZM13.1268 18.2546C10.7656 18.2546 8.83531 16.33 8.83531 13.9631C8.83531 11.5962 10.7599 9.67161 13.1268 9.67161C15.4937 9.67161 17.4183 11.5962 17.4183 13.9631C17.4183 16.33 15.488 18.2546 13.1268 18.2546ZM21.5374 7.09213C21.5374 7.94813 20.848 8.63177 19.9978 8.63177C19.1418 8.63177 18.4581 7.94238 18.4581 7.09213C18.4581 6.24187 19.1475 5.55248 19.9978 5.55248C20.848 5.55248 21.5374 6.24187 21.5374 7.09213ZM25.9093 8.65475C25.8116 6.59232 25.3406 4.76542 23.8296 3.26025C22.3245 1.75507 20.4976 1.28398 18.4351 1.18057C16.3095 1.05993 9.93834 1.05993 7.81271 1.18057C5.75602 1.27823 3.92912 1.74932 2.4182 3.2545C0.90728 4.75968 0.441939 6.58657 0.33853 8.64901C0.217886 10.7746 0.217886 17.1458 0.33853 19.2714C0.436194 21.3339 0.90728 23.1608 2.4182 24.6659C3.92912 26.1711 5.75027 26.6422 7.81271 26.7456C9.93834 26.8663 16.3095 26.8663 18.4351 26.7456C20.4976 26.6479 22.3245 26.1769 23.8296 24.6659C25.3348 23.1608 25.8059 21.3339 25.9093 19.2714C26.03 17.1458 26.03 10.7804 25.9093 8.65475ZM23.1632 21.5522C22.7151 22.6782 21.8476 23.5457 20.7159 23.9995C19.0211 24.6717 14.9996 24.5166 13.1268 24.5166C11.2539 24.5166 7.22673 24.6659 5.53771 23.9995C4.4117 23.5514 3.54421 22.6839 3.09036 21.5522C2.4182 19.8574 2.57332 15.836 2.57332 13.9631C2.57332 12.0902 2.42395 8.06302 3.09036 6.37401C3.53847 5.248 4.40596 4.38051 5.53771 3.92666C7.23247 3.2545 11.2539 3.40961 13.1268 3.40961C14.9996 3.40961 19.0269 3.26025 20.7159 3.92666C21.8419 4.37477 22.7094 5.24225 23.1632 6.37401C23.8354 8.06877 23.6803 12.0902 23.6803 13.9631C23.6803 15.836 23.8354 19.8632 23.1632 21.5522Z" fill="#18425D"/>
</g>
</g>
</g>
<defs>
<clipPath id="clip0_15_633">
<rect width="26" height="26" fill="white" transform="translate(0 1.09009)"/>
</clipPath>
<clipPath id="clip1_15_633">
<rect width="26" height="26" fill="white" transform="translate(0 1.09009)"/>
</clipPath>
<clipPath id="clip2_15_633">
<rect width="26" height="26" fill="white" transform="translate(0 1.09009)"/>
</clipPath>
</defs>
</svg>
