<svg width="26" height="27" viewBox="0 0 26 27" fill="none" xmlns="http://www.w3.org/2000/svg">
<g clip-path="url(#clip0_15_619)">
<g clip-path="url(#clip1_15_619)">
<g clip-path="url(#clip2_15_619)">
<path d="M23.899 0.0998535H1.83264C0.821528 0.0998535 0 0.932872 0 1.95548V23.9816C0 25.0042 0.821528 25.8372 1.83264 25.8372H23.899C24.9101 25.8372 25.7374 25.0042 25.7374 23.9816V1.95548C25.7374 0.932872 24.9101 0.0998535 23.899 0.0998535ZM7.77866 22.1605H3.96402V9.87776H7.78441V22.1605H7.77866ZM5.87134 8.20024C4.64767 8.20024 3.65953 7.20636 3.65953 5.98843C3.65953 4.7705 4.64767 3.77662 5.87134 3.77662C7.08927 3.77662 8.08315 4.7705 8.08315 5.98843C8.08315 7.2121 7.09501 8.20024 5.87134 8.20024ZM22.0778 22.1605H18.2632V16.1857C18.2632 14.761 18.2345 12.9283 16.2812 12.9283C14.2934 12.9283 13.989 14.4795 13.989 16.0823V22.1605H10.1743V9.87776H13.8338V11.5553H13.8855C14.3968 10.5901 15.6435 9.57328 17.4991 9.57328C21.3597 9.57328 22.0778 12.1183 22.0778 15.4274V22.1605Z" fill="#18425D"/>
</g>
</g>
</g>
<defs>
<clipPath id="clip0_15_619">
<rect width="26" height="26" fill="white" transform="translate(0 0.0900879)"/>
</clipPath>
<clipPath id="clip1_15_619">
<rect width="26" height="26" fill="white" transform="translate(0 0.0900879)"/>
</clipPath>
<clipPath id="clip2_15_619">
<rect width="26" height="26" fill="white" transform="translate(0 0.0900879)"/>
</clipPath>
</defs>
</svg>
