<svg width="16" height="16" viewBox="0 0 16 16" fill="none" xmlns="http://www.w3.org/2000/svg">
<path d="M12.5227 11.215H1.91016V12.465H14.4102V11.215H12.5227ZM13.7852 10.59C13.6164 8.04625 11.7539 5.965 9.31016 5.45875C9.39097 5.26842 9.42347 5.06105 9.40472 4.85513C9.38597 4.6492 9.31659 4.4511 9.20278 4.27849C9.08891 4.10587 8.93416 3.96409 8.75222 3.86577C8.57034 3.76746 8.36691 3.71566 8.16016 3.715C7.95341 3.71566 7.74997 3.76746 7.56809 3.86577C7.38616 3.96409 7.23141 4.10587 7.11753 4.27849C7.00372 4.4511 6.93434 4.6492 6.91559 4.85513C6.89686 5.06105 6.92934 5.26842 7.01016 5.45875C4.56641 5.965 2.70391 8.04625 2.53516 10.59H13.7852ZM8.16016 6.5775C10.0039 6.5775 11.5789 7.72125 12.2227 9.33375H4.09766C4.42161 8.52081 4.98184 7.82362 5.70602 7.33231C6.43019 6.841 7.28503 6.57807 8.16016 6.5775Z" fill="#5F738C"/>
</svg>
