<svg width="31" height="26" viewBox="0 0 31 26" fill="none" xmlns="http://www.w3.org/2000/svg">
<g clip-path="url(#clip0_15_624)">
<g clip-path="url(#clip1_15_624)">
<path d="M27.249 6.97789C27.2677 7.23918 27.2677 7.50051 27.2677 7.76179C27.2677 15.7312 21.202 24.9138 10.1156 24.9138C6.70015 24.9138 3.52733 23.9246 0.858398 22.2076C1.34367 22.2636 1.81022 22.2822 2.31417 22.2822C5.13235 22.2822 7.72666 21.3304 9.79835 19.7066C7.14809 19.6506 4.92709 17.9149 4.16186 15.5259C4.53517 15.5819 4.90842 15.6192 5.30039 15.6192C5.84163 15.6192 6.38292 15.5445 6.88681 15.414C4.12458 14.854 2.05283 12.4277 2.05283 9.49751V9.42289C2.85534 9.87082 3.78861 10.1508 4.77772 10.1881C3.15397 9.10554 2.09017 7.25785 2.09017 5.16749C2.09017 4.04768 2.38874 3.02117 2.91136 2.12531C5.87891 5.7834 10.3396 8.17233 15.3414 8.43367C15.2481 7.98573 15.1921 7.51918 15.1921 7.05258C15.1921 3.73039 17.8797 1.02417 21.2205 1.02417C22.9562 1.02417 24.524 1.75206 25.6252 2.92788C26.9876 2.6666 28.294 2.16265 29.4513 1.47211C29.0033 2.87192 28.0514 4.04774 26.801 4.79424C28.0141 4.66366 29.19 4.32763 30.2724 3.86109C29.4514 5.05552 28.4248 6.11931 27.249 6.97789Z" fill="#18425D"/>
</g>
</g>
<defs>
<clipPath id="clip0_15_624">
<rect width="31" height="25" fill="white" transform="translate(0 0.0900879)"/>
</clipPath>
<clipPath id="clip1_15_624">
<rect width="31" height="25" fill="white" transform="translate(0 0.0900879)"/>
</clipPath>
</defs>
</svg>
